<svg width="311" height="301" viewBox="0 0 311 301" fill="none" xmlns="http://www.w3.org/2000/svg">
<path fill-rule="evenodd" clip-rule="evenodd" d="M132.364 23.9829C173.359 25.5244 214.183 31.6123 245.836 57.5902C280.813 86.2961 312.608 125.448 310.937 170.541C309.298 214.769 273.682 249.371 237.763 275.456C207.447 297.472 169.76 303.337 132.364 300.225C98.4629 297.403 65.2333 285.091 43.2309 259.264C22.6896 235.153 26.8152 201.772 21.8832 170.541C15.2666 128.643 -15.5913 82.6454 9.98159 48.7215C35.954 14.2678 89.1208 22.3568 132.364 23.9829Z" fill="#FFD6AD"/>
<path d="M192.161 70.3938H190.856V34.6683C190.856 31.953 190.322 29.2641 189.283 26.7554C188.244 24.2467 186.721 21.9672 184.801 20.047C182.881 18.1269 180.601 16.6037 178.093 15.5645C175.584 14.5253 172.895 13.9903 170.18 13.9902H94.4901C89.0062 13.9902 83.7469 16.1687 79.8692 20.0464C75.9915 23.9241 73.8131 29.1834 73.8131 34.6673V230.661C73.8131 236.145 75.9915 241.405 79.8692 245.282C83.7469 249.16 89.0062 251.339 94.4901 251.339H170.18C175.664 251.339 180.923 249.16 184.801 245.282C188.679 241.405 190.857 236.145 190.857 230.661V95.8239H192.162L192.161 70.3938Z" fill="#3F3D56"/>
<path d="M186.456 34.8129V230.518C186.456 234.613 184.829 238.541 181.933 241.437C179.037 244.333 175.109 245.96 171.014 245.96H94.9613C90.8658 245.96 86.9382 244.333 84.0423 241.437C81.1463 238.541 79.5194 234.613 79.5193 230.518V34.8129C79.5197 30.7178 81.1467 26.7904 84.0425 23.8948C86.9383 20.9991 90.8657 19.3723 94.9609 19.3721H104.187C103.734 20.4861 103.561 21.6945 103.685 22.891C103.808 24.0874 104.223 25.2352 104.894 26.2334C105.565 27.2317 106.471 28.0497 107.533 28.6156C108.594 29.1815 109.778 29.4779 110.981 29.4787H154.342C155.545 29.4778 156.729 29.1814 157.791 28.6155C158.852 28.0496 159.758 27.2315 160.429 26.2333C161.1 25.2351 161.515 24.0873 161.638 22.8909C161.761 21.6945 161.589 20.4861 161.135 19.3721H171.014C175.109 19.3722 179.037 20.9991 181.933 23.895C184.829 26.7909 186.456 30.7186 186.456 34.814V34.8129Z" fill="white"/>
<path d="M90.1345 38.8876C90.5586 38.8876 90.9025 38.5438 90.9025 38.1196C90.9025 37.6954 90.5586 37.3516 90.1345 37.3516C89.7103 37.3516 89.3664 37.6954 89.3664 38.1196C89.3664 38.5438 89.7103 38.8876 90.1345 38.8876Z" fill="#3F3D56"/>
<path d="M92.9506 38.8876C93.3747 38.8876 93.7186 38.5438 93.7186 38.1196C93.7186 37.6954 93.3747 37.3516 92.9506 37.3516C92.5264 37.3516 92.1825 37.6954 92.1825 38.1196C92.1825 38.5438 92.5264 38.8876 92.9506 38.8876Z" fill="#3F3D56"/>
<path d="M95.767 38.8876C96.1911 38.8876 96.535 38.5438 96.535 38.1196C96.535 37.6954 96.1911 37.3516 95.767 37.3516C95.3428 37.3516 94.9989 37.6954 94.9989 38.1196C94.9989 38.5438 95.3428 38.8876 95.767 38.8876Z" fill="#3F3D56"/>
<path d="M176.162 36.0723H168.225V37.0963H176.162V36.0723Z" fill="#3F3D56"/>
<path d="M176.162 37.6074H168.225V38.6315H176.162V37.6074Z" fill="#3F3D56"/>
<path d="M176.162 39.1445H168.225V40.1686H176.162V39.1445Z" fill="#3F3D56"/>
<path d="M135.473 51.3643H96.5579C94.825 51.3662 93.1636 52.1624 91.938 53.5783C90.7124 54.9941 90.0226 56.914 90.0201 58.9168V152.965H164.119V84.4738C164.11 75.6957 161.089 67.2801 155.719 61.073C150.349 54.866 143.067 51.3744 135.473 51.3643Z" fill="white"/>
<path d="M151.293 144.498H102.846C102.428 144.498 102.026 144.701 101.73 145.062C101.434 145.423 101.267 145.912 101.267 146.422C101.267 146.933 101.434 147.422 101.73 147.783C102.026 148.144 102.428 148.347 102.846 148.347H151.293C151.712 148.347 152.113 148.144 152.41 147.783C152.706 147.422 152.872 146.933 152.872 146.422C152.872 145.912 152.706 145.423 152.41 145.062C152.113 144.701 151.712 144.498 151.293 144.498Z" fill="#E4E4E4"/>
<path d="M151.293 171.438H102.846C102.428 171.437 102.026 171.64 101.73 172.001C101.434 172.362 101.267 172.851 101.267 173.362C101.267 173.872 101.434 174.362 101.73 174.722C102.026 175.083 102.428 175.286 102.846 175.286H151.293C151.712 175.286 152.113 175.083 152.41 174.722C152.706 174.362 152.872 173.872 152.872 173.362C152.872 172.851 152.706 172.362 152.41 172.001C152.113 171.64 151.712 171.438 151.293 171.438Z" fill="#E4E4E4"/>
<path d="M151.293 202.226H102.846C102.428 202.226 102.026 202.428 101.73 202.789C101.434 203.15 101.267 203.639 101.267 204.15C101.267 204.66 101.434 205.15 101.73 205.51C102.026 205.871 102.428 206.074 102.846 206.074H151.293C151.712 206.074 152.113 205.871 152.41 205.51C152.706 205.15 152.872 204.66 152.872 204.15C152.872 203.639 152.706 203.15 152.41 202.789C152.113 202.428 151.712 202.226 151.293 202.226Z" fill="#E4E4E4"/>
<path d="M151.291 137.571H102.848C102.429 137.571 102.027 137.774 101.73 138.135C101.434 138.496 101.267 138.985 101.267 139.496C101.267 140.006 101.434 140.495 101.73 140.856C102.027 141.217 102.429 141.42 102.848 141.42H151.291C151.711 141.42 152.113 141.217 152.409 140.856C152.705 140.495 152.872 140.006 152.872 139.496C152.872 138.985 152.705 138.496 152.409 138.135C152.113 137.774 151.711 137.571 151.291 137.571Z" fill="#E4E4E4"/>
<path d="M151.291 164.511H102.848C102.429 164.511 102.027 164.713 101.73 165.074C101.434 165.435 101.267 165.925 101.267 166.435C101.267 166.945 101.434 167.435 101.73 167.796C102.027 168.157 102.429 168.359 102.848 168.359H151.291C151.711 168.359 152.113 168.157 152.409 167.796C152.705 167.435 152.872 166.945 152.872 166.435C152.872 165.925 152.705 165.435 152.409 165.074C152.113 164.713 151.711 164.511 151.291 164.511Z" fill="#E4E4E4"/>
<path d="M151.291 194.529H102.848C102.429 194.529 102.027 194.732 101.73 195.093C101.434 195.454 101.267 195.943 101.267 196.454C101.267 196.964 101.434 197.453 101.73 197.814C102.027 198.175 102.429 198.378 102.848 198.378H151.291C151.711 198.378 152.113 198.175 152.409 197.814C152.705 197.453 152.872 196.964 152.872 196.454C152.872 195.943 152.705 195.454 152.409 195.093C152.113 194.732 151.711 194.529 151.291 194.529Z" fill="#E4E4E4"/>
<path d="M124.146 129.874H102.867C102.443 129.874 102.036 130.077 101.736 130.438C101.436 130.798 101.267 131.288 101.267 131.798C101.267 132.309 101.436 132.798 101.736 133.159C102.036 133.52 102.443 133.723 102.867 133.723H124.146C124.571 133.723 124.978 133.52 125.278 133.159C125.578 132.798 125.746 132.309 125.746 131.798C125.746 131.288 125.578 130.798 125.278 130.438C124.978 130.077 124.571 129.874 124.146 129.874Z" fill="#E4E4E4"/>
<path d="M124.146 156.813H102.867C102.443 156.813 102.036 157.016 101.736 157.377C101.436 157.738 101.267 158.227 101.267 158.738C101.267 159.248 101.436 159.738 101.736 160.098C102.036 160.459 102.443 160.662 102.867 160.662H124.146C124.571 160.662 124.978 160.459 125.278 160.098C125.578 159.738 125.746 159.248 125.746 158.738C125.746 158.227 125.578 157.738 125.278 157.377C124.978 157.016 124.571 156.813 124.146 156.813Z" fill="#E4E4E4"/>
<path d="M124.146 187.602H102.867C102.443 187.602 102.036 187.804 101.736 188.165C101.436 188.526 101.267 189.015 101.267 189.526C101.267 190.036 101.436 190.526 101.736 190.886C102.036 191.247 102.443 191.45 102.867 191.45H124.146C124.571 191.45 124.978 191.247 125.278 190.886C125.578 190.526 125.746 190.036 125.746 189.526C125.746 189.015 125.578 188.526 125.278 188.165C124.978 187.804 124.571 187.602 124.146 187.602Z" fill="#E4E4E4"/>
<path d="M151.291 115.25H102.848C102.429 115.25 102.027 115.412 101.73 115.701C101.434 115.99 101.267 116.381 101.267 116.789C101.267 117.198 101.434 117.589 101.73 117.878C102.027 118.167 102.429 118.329 102.848 118.329H151.291C151.711 118.329 152.113 118.167 152.409 117.878C152.705 117.589 152.872 117.198 152.872 116.789C152.872 116.381 152.705 115.99 152.409 115.701C152.113 115.412 151.711 115.25 151.291 115.25Z" fill="#E4E4E4"/>
<path d="M151.293 108.322H102.846C102.428 108.322 102.026 108.484 101.73 108.773C101.434 109.062 101.267 109.453 101.267 109.862C101.267 110.27 101.434 110.661 101.73 110.95C102.026 111.239 102.428 111.401 102.846 111.401H151.293C151.712 111.401 152.113 111.239 152.41 110.95C152.706 110.661 152.872 110.27 152.872 109.862C152.872 109.453 152.706 109.062 152.41 108.773C152.113 108.484 151.712 108.322 151.293 108.322Z" fill="#E4E4E4"/>
<path d="M124.145 100.625H102.869C102.444 100.625 102.037 100.828 101.736 101.189C101.436 101.549 101.267 102.039 101.267 102.549C101.267 103.06 101.436 103.549 101.736 103.91C102.037 104.271 102.444 104.474 102.869 104.474H124.145C124.57 104.474 124.977 104.271 125.277 103.91C125.578 103.549 125.746 103.06 125.746 102.549C125.746 102.039 125.578 101.549 125.277 101.189C124.977 100.828 124.57 100.625 124.145 100.625Z" fill="#E4E4E4"/>
<path d="M151.291 85.2314H102.848C102.429 85.2314 102.027 85.4342 101.73 85.795C101.434 86.1559 101.267 86.6454 101.267 87.1557C101.267 87.666 101.434 88.1555 101.73 88.5164C102.027 88.8772 102.429 89.08 102.848 89.08H151.291C151.711 89.08 152.113 88.8772 152.409 88.5164C152.705 88.1555 152.872 87.666 152.872 87.1557C152.872 86.6454 152.705 86.1559 152.409 85.795C152.113 85.4342 151.711 85.2314 151.291 85.2314Z" fill="#130160"/>
<path d="M151.291 78.3037H102.848C102.429 78.3037 102.027 78.4659 101.73 78.7546C101.434 79.0433 101.267 79.4348 101.267 79.8431C101.267 80.2514 101.434 80.6429 101.73 80.9316C102.027 81.2203 102.429 81.3825 102.848 81.3825H151.291C151.711 81.3825 152.113 81.2203 152.409 80.9316C152.705 80.6429 152.872 80.2514 152.872 79.8431C152.872 79.4348 152.705 79.0433 152.409 78.7546C152.113 78.4659 151.711 78.3037 151.291 78.3037Z" fill="#130160"/>
<path d="M124.145 70.6064H102.869C102.444 70.6064 102.037 70.8092 101.736 71.17C101.436 71.5309 101.267 72.0204 101.267 72.5307C101.267 73.041 101.436 73.5305 101.736 73.8914C102.037 74.2522 102.444 74.455 102.869 74.455H124.145C124.57 74.455 124.977 74.2522 125.277 73.8914C125.578 73.5305 125.746 73.041 125.746 72.5307C125.746 72.0204 125.578 71.5309 125.277 71.17C124.977 70.8092 124.57 70.6064 124.145 70.6064Z" fill="#130160"/>
<path d="M287.792 107.593L273.342 86.127L258.951 97.3959L272.543 107.937L275.336 141.614C274.475 142.52 273.897 143.655 273.672 144.882C273.448 146.11 273.586 147.375 274.071 148.525C274.556 149.675 275.367 150.66 276.403 151.359C277.44 152.058 278.659 152.442 279.911 152.462C281.163 152.483 282.393 152.141 283.453 151.477C284.513 150.813 285.356 149.856 285.88 148.723C286.403 147.59 286.584 146.329 286.401 145.095C286.218 143.861 285.679 142.707 284.849 141.773L287.792 107.593Z" fill="#FFB6B6"/>
<path d="M253.389 66.3405C261.033 64.9156 276.19 88.4574 276.19 88.4574C274.389 88.4957 288.285 102.444 286.805 103.118C282.6 105.034 272.574 106.53 271.02 109.116C270.13 110.595 261.268 100.529 261.268 100.529C261.268 100.529 255.73 95.2786 248.739 88.383C246.726 86.4701 245.231 84.0808 244.394 81.4377C243.558 78.7945 243.406 75.9833 243.953 73.2659C243.953 73.2659 245.744 67.7654 253.389 66.3405Z" fill="#130160"/>
<path d="M260.637 256.814L261.174 244.788C266.77 241.808 273.012 240.234 279.357 240.202C270.624 247.316 271.715 261.029 265.795 270.595C263.925 273.565 261.409 276.077 258.432 277.946C255.455 279.815 252.095 280.993 248.599 281.392L241.291 285.85C240.288 280.28 240.51 274.56 241.939 269.083C243.369 263.606 245.973 258.503 249.573 254.126C251.617 251.691 253.96 249.521 256.548 247.669C258.299 252.267 260.637 256.814 260.637 256.814Z" fill="#E6E1FF"/>
<path d="M241.807 279.661L235.189 279.661L232.041 254.229L241.808 254.23L241.807 279.661Z" fill="#FFB6B6"/>
<path d="M243.495 286.052L222.157 286.051V285.782C222.157 283.588 223.032 281.483 224.59 279.931C226.147 278.38 228.26 277.508 230.462 277.508H230.463L234.36 274.562L241.632 277.508L243.495 277.508L243.495 286.052Z" fill="#2F2E41"/>
<path d="M211.063 279.661L204.446 279.661L201.298 254.229L211.065 254.23L211.063 279.661Z" fill="#FFB6B6"/>
<path d="M212.751 286.052L191.414 286.051V285.782C191.414 283.588 192.289 281.483 193.846 279.931C195.404 278.38 197.516 277.508 199.719 277.508H199.719L203.617 274.562L210.889 277.508L212.751 277.508L212.751 286.052Z" fill="#2F2E41"/>
<path d="M208.199 140.627L251.242 141.699C259.416 146.123 259.541 155.698 256.862 167.066C256.862 167.066 257.766 173.823 255.958 175.625C254.149 177.427 253.245 177.427 254.149 180.58C255.054 183.733 250.276 188.883 250.857 189.461C251.437 190.039 252.793 193.193 252.793 193.193L248.272 218.869C248.272 218.869 245.107 263.464 244.203 264.365C243.299 265.266 242.395 264.365 243.299 266.617C244.203 268.869 245.107 267.968 244.203 268.869C243.402 269.73 242.647 270.632 241.942 271.572H231.012C231.012 271.572 230.188 267.068 230.188 266.617C230.188 266.167 229.283 263.464 229.283 263.013C229.283 262.563 230.083 261.767 230.083 261.767C230.359 260.851 230.545 259.911 230.64 258.959C230.64 258.058 233.352 223.373 233.352 223.373L227.927 178.327L214.816 222.472C214.816 222.472 214.816 261.212 213.912 262.113C213.007 263.013 213.007 262.563 213.46 264.365C213.912 266.167 215.72 265.716 214.364 267.068C213.007 268.419 212.555 266.167 213.007 268.419L213.46 270.671L199.896 270.865C199.896 270.865 198.088 267.068 198.992 265.716C199.896 264.365 199.842 264.734 198.739 262.522C197.636 260.311 197.184 259.86 197.636 259.41C198.088 258.959 198.088 256.563 198.088 256.563L200.348 213.463C200.348 213.463 200.8 167.967 200.8 166.616C200.835 165.92 200.706 165.226 200.425 164.589V162.755L202.157 156.255L208.199 140.627Z" fill="#69687F"/>
<path d="M234.055 51.4533C241.441 51.4533 247.429 45.4876 247.429 38.1285C247.429 30.7694 241.441 24.8037 234.055 24.8037C226.669 24.8037 220.682 30.7694 220.682 38.1285C220.682 45.4876 226.669 51.4533 234.055 51.4533Z" fill="#FFB6B6"/>
<path d="M227.369 60.2604C224.487 61.9671 222.764 65.1027 221.775 68.2935C219.943 74.2009 218.84 80.3087 218.491 86.4818L217.446 104.963L204.504 144.315C215.721 153.771 257.882 146.464 257.882 146.464C257.882 146.464 259.176 146.034 257.882 144.744C256.588 143.455 255.328 144.597 256.622 143.308C257.916 142.018 257.024 143.455 256.593 142.165C256.161 140.876 256.593 141.736 257.024 141.306C257.456 140.876 253.684 137.007 253.684 137.007L257.136 114.419L261.45 68.857C256.273 62.4095 245.862 58.6088 245.862 58.6088L243.171 53.7842L229.72 54.8563L227.369 60.2604Z" fill="#130160"/>
<path d="M225.534 30.3086C226.052 30.3126 226.567 30.3799 227.068 30.509C228.055 30.7456 229.058 30.9132 230.07 31.0106C233.166 31.3008 236.075 32.6163 238.332 34.7471C240.59 36.8778 242.066 39.7009 242.524 42.7653C243.301 42.0903 245.069 40.8485 246.519 42.0026C246.541 42.0209 246.554 42.0303 246.605 42.0062C247.567 41.5513 249.276 35.9514 249.328 31.0208C249.355 28.4038 248.942 25.062 246.817 24.0037L246.705 23.948L246.676 23.8268C246.534 23.2381 244.948 22.2332 242.192 21.4511C237.184 20.0298 229.719 17.261 225.515 21.3357C225.196 22.7094 224.161 25.6491 223.116 25.9823C221.958 26.3511 220.958 26.6694 220.8 28.0844C220.669 30.0981 220.678 32.1185 220.829 34.1309C221.221 32.8995 221.992 31.8217 223.031 31.0493C223.77 30.5536 224.644 30.2951 225.534 30.3086Z" fill="#2F2E41"/>
<path d="M200.642 103.934L222.488 89.9941L211.485 75.4209L200.62 88.7369L166.767 90.8055C165.877 89.9286 164.75 89.3287 163.523 89.0791C162.297 88.8294 161.023 88.9407 159.859 89.3995C158.695 89.8582 157.69 90.6446 156.966 91.6627C156.243 92.6807 155.832 93.8866 155.785 95.1331C155.737 96.3796 156.055 97.613 156.699 98.6828C157.343 99.7526 158.285 100.613 159.411 101.158C160.537 101.704 161.798 101.911 163.04 101.755C164.282 101.598 165.452 101.085 166.406 100.278L200.642 103.934Z" fill="#FFB6B6"/>
<path d="M242.764 70.5374C244.032 78.1826 220.088 92.7818 220.088 92.7818C220.088 90.9873 205.797 104.534 205.152 103.046C203.319 98.8163 202.03 88.7979 199.468 87.1944C198.003 86.2774 208.291 77.6627 208.291 77.6627C208.291 77.6627 213.677 72.257 220.744 65.4386C222.706 63.4741 225.135 62.036 227.805 61.2584C230.475 60.4808 233.299 60.3889 236.015 60.9913C236.015 60.9913 241.496 62.8921 242.764 70.5374Z" fill="#130160"/>
<path d="M291.483 286.158C291.484 286.242 291.467 286.325 291.435 286.403C291.403 286.48 291.356 286.551 291.296 286.61C291.237 286.669 291.166 286.716 291.088 286.748C291.011 286.78 290.927 286.797 290.843 286.796H140.037C139.868 286.796 139.705 286.729 139.585 286.61C139.465 286.49 139.397 286.328 139.397 286.158C139.397 285.989 139.465 285.827 139.585 285.707C139.705 285.588 139.868 285.521 140.037 285.521H290.843C290.927 285.52 291.011 285.537 291.088 285.569C291.166 285.601 291.237 285.648 291.296 285.707C291.356 285.766 291.403 285.837 291.435 285.914C291.467 285.992 291.484 286.075 291.483 286.158Z" fill="#130160"/>
<circle cx="68.2056" cy="25.2056" r="25.2056" fill="#FCA34D"/>
<path d="M76.0081 31.8286L79.2702 35.089C79.4223 35.2466 79.5065 35.4575 79.5046 35.6765C79.5027 35.8955 79.4149 36.1049 79.26 36.2598C79.1052 36.4146 78.8957 36.5024 78.6768 36.5044C78.4578 36.5063 78.2468 36.4221 78.0893 36.2699L74.8272 33.0079C72.6955 34.8342 69.9393 35.764 67.1369 35.602C64.3345 35.44 61.7037 34.1989 59.7967 32.139C57.8896 30.0792 56.8545 27.3608 56.9085 24.5542C56.9626 21.7476 58.1015 19.0711 60.0864 17.0862C62.0714 15.1013 64.7479 13.9623 67.5545 13.9083C70.3611 13.8542 73.0795 14.8894 75.1393 16.7964C77.1991 18.7035 78.4403 21.3342 78.6022 24.1366C78.7642 26.939 77.8345 29.6953 76.0081 31.827V31.8286ZM67.7636 33.9499C70.2 33.9499 72.5367 32.982 74.2595 31.2592C75.9823 29.5364 76.9502 27.1997 76.9502 24.7633C76.9502 22.3269 75.9823 19.9902 74.2595 18.2674C72.5367 16.5446 70.2 15.5767 67.7636 15.5767C65.3271 15.5767 62.9905 16.5446 61.2676 18.2674C59.5448 19.9902 58.577 22.3269 58.577 24.7633C58.577 27.1997 59.5448 29.5364 61.2676 31.2592C62.9905 32.982 65.3271 33.9499 67.7636 33.9499Z" fill="white"/>
</svg>
